<svg width="181" height="27" viewBox="0 0 181 27" fill="none" xmlns="http://www.w3.org/2000/svg">
<path d="M7.504 1.052C7.936 1.844 8.428 2.828 8.98 4.004C9.556 5.156 10.144 6.416 10.744 7.784C11.368 9.128 11.98 10.508 12.58 11.924C13.18 13.34 13.744 14.672 14.272 15.92C14.8 14.672 15.364 13.34 15.964 11.924C16.564 10.508 17.164 9.128 17.764 7.784C18.388 6.416 18.976 5.156 19.528 4.004C20.104 2.828 20.608 1.844 21.04 1.052H26.152C26.392 2.708 26.608 4.568 26.8 6.632C27.016 8.672 27.196 10.808 27.34 13.04C27.508 15.248 27.652 17.468 27.772 19.7C27.916 21.932 28.036 24.032 28.132 26H22.66C22.588 23.576 22.492 20.936 22.372 18.08C22.252 15.224 22.072 12.344 21.832 9.44C21.4 10.448 20.92 11.564 20.392 12.788C19.864 14.012 19.336 15.236 18.808 16.46C18.304 17.684 17.812 18.86 17.332 19.988C16.852 21.092 16.444 22.04 16.108 22.832H12.184C11.848 22.04 11.44 21.092 10.96 19.988C10.48 18.86 9.976 17.684 9.448 16.46C8.944 15.236 8.428 14.012 7.9 12.788C7.372 11.564 6.892 10.448 6.46 9.44C6.22 12.344 6.04 15.224 5.92 18.08C5.8 20.936 5.704 23.576 5.632 26H0.16C0.256 24.032 0.364 21.932 0.484 19.7C0.628 17.468 0.772 15.248 0.916 13.04C1.084 10.808 1.264 8.672 1.456 6.632C1.672 4.568 1.9 2.708 2.14 1.052H7.504ZM38.5166 26.54C37.8686 26.54 37.1846 26.492 36.4646 26.396C35.7446 26.324 35.0486 26.216 34.3766 26.072C33.7046 25.928 33.0926 25.772 32.5406 25.604C31.9886 25.436 31.5566 25.28 31.2446 25.136L32.2886 20.672C32.9126 20.936 33.7046 21.224 34.6646 21.536C35.6486 21.824 36.8606 21.968 38.3006 21.968C39.9566 21.968 41.1686 21.656 41.9366 21.032C42.7046 20.408 43.0886 19.568 43.0886 18.512C43.0886 17.864 42.9446 17.324 42.6566 16.892C42.3926 16.436 42.0206 16.076 41.5406 15.812C41.0606 15.524 40.4846 15.332 39.8126 15.236C39.1646 15.116 38.4686 15.056 37.7246 15.056H35.6366V10.736H38.0126C38.5406 10.736 39.0446 10.688 39.5246 10.592C40.0286 10.496 40.4726 10.34 40.8566 10.124C41.2406 9.884 41.5406 9.572 41.7566 9.188C41.9966 8.78 42.1166 8.276 42.1166 7.676C42.1166 7.22 42.0206 6.824 41.8286 6.488C41.6366 6.152 41.3846 5.876 41.0726 5.66C40.7846 5.444 40.4366 5.288 40.0286 5.192C39.6446 5.072 39.2486 5.012 38.8406 5.012C37.8086 5.012 36.8486 5.168 35.9606 5.48C35.0966 5.792 34.3046 6.176 33.5846 6.632L31.6766 2.708C32.0606 2.468 32.5046 2.216 33.0086 1.952C33.5366 1.688 34.1126 1.448 34.7366 1.232C35.3606 1.016 36.0206 0.835999 36.7166 0.692C37.4366 0.547999 38.1926 0.475998 38.9846 0.475998C40.4486 0.475998 41.7086 0.655999 42.7646 1.016C43.8446 1.352 44.7326 1.844 45.4286 2.492C46.1246 3.116 46.6406 3.86 46.9766 4.724C47.3126 5.564 47.4806 6.488 47.4806 7.496C47.4806 8.48 47.2046 9.44 46.6526 10.376C46.1006 11.288 45.3566 11.984 44.4206 12.464C45.7166 12.992 46.7126 13.784 47.4086 14.84C48.1286 15.872 48.4886 17.12 48.4886 18.584C48.4886 19.736 48.2966 20.804 47.9126 21.788C47.5286 22.748 46.9286 23.588 46.1126 24.308C45.2966 25.004 44.2526 25.556 42.9806 25.964C41.7326 26.348 40.2446 26.54 38.5166 26.54ZM72.1535 1.052V5.84H64.6295V26H59.0135V5.84H51.4895V1.052H72.1535ZM83.0708 0.763999C86.8148 0.763999 89.6828 1.436 91.6748 2.78C93.6668 4.1 94.6628 6.164 94.6628 8.972C94.6628 10.724 94.2548 12.152 93.4388 13.256C92.6468 14.336 91.4948 15.188 89.9828 15.812C90.4868 16.436 91.0148 17.156 91.5668 17.972C92.1188 18.764 92.6588 19.604 93.1868 20.492C93.7388 21.356 94.2668 22.268 94.7708 23.228C95.2748 24.164 95.7428 25.088 96.1748 26H89.8748C89.4188 25.184 88.9508 24.356 88.4708 23.516C88.0148 22.676 87.5348 21.86 87.0308 21.068C86.5508 20.276 86.0708 19.532 85.5908 18.836C85.1108 18.116 84.6308 17.468 84.1508 16.892H81.3788V26H75.7628V1.412C76.9868 1.172 78.2468 1.004 79.5428 0.907999C80.8628 0.811999 82.0388 0.763999 83.0708 0.763999ZM83.3948 5.552C82.9868 5.552 82.6148 5.564 82.2788 5.588C81.9668 5.612 81.6668 5.636 81.3788 5.66V12.428H82.9628C85.0748 12.428 86.5868 12.164 87.4988 11.636C88.4108 11.108 88.8668 10.208 88.8668 8.936C88.8668 7.712 88.3988 6.848 87.4628 6.344C86.5508 5.816 85.1948 5.552 83.3948 5.552ZM99.7745 1.052H105.391V26H99.7745V1.052ZM125.889 26C125.385 25.184 124.785 24.308 124.089 23.372C123.417 22.412 122.673 21.464 121.857 20.528C121.065 19.568 120.237 18.656 119.373 17.792C118.509 16.904 117.645 16.124 116.781 15.452V26H111.165V1.052H116.781V10.484C118.245 8.948 119.709 7.352 121.173 5.696C122.661 4.016 124.041 2.468 125.313 1.052H131.973C130.269 3.068 128.553 5.012 126.825 6.884C125.121 8.756 123.321 10.64 121.425 12.536C123.417 14.192 125.337 16.16 127.185 18.44C129.057 20.72 130.845 23.24 132.549 26H125.889ZM141.796 23.156C141.796 24.236 141.448 25.064 140.752 25.64C140.08 26.192 139.312 26.468 138.448 26.468C137.584 26.468 136.804 26.192 136.108 25.64C135.436 25.064 135.1 24.236 135.1 23.156C135.1 22.076 135.436 21.26 136.108 20.708C136.804 20.132 137.584 19.844 138.448 19.844C139.312 19.844 140.08 20.132 140.752 20.708C141.448 21.26 141.796 22.076 141.796 23.156ZM145.759 1.052H151.375V26H145.759V1.052ZM161.866 13.508C161.866 14.732 162.01 15.836 162.298 16.82C162.61 17.804 163.042 18.656 163.594 19.376C164.17 20.072 164.866 20.612 165.682 20.996C166.498 21.38 167.434 21.572 168.49 21.572C169.522 21.572 170.446 21.38 171.262 20.996C172.102 20.612 172.798 20.072 173.35 19.376C173.926 18.656 174.358 17.804 174.646 16.82C174.958 15.836 175.114 14.732 175.114 13.508C175.114 12.284 174.958 11.18 174.646 10.196C174.358 9.188 173.926 8.336 173.35 7.64C172.798 6.92 172.102 6.368 171.262 5.984C170.446 5.6 169.522 5.408 168.49 5.408C167.434 5.408 166.498 5.612 165.682 6.02C164.866 6.404 164.17 6.956 163.594 7.676C163.042 8.372 162.61 9.224 162.298 10.232C162.01 11.216 161.866 12.308 161.866 13.508ZM180.91 13.508C180.91 15.644 180.586 17.528 179.938 19.16C179.314 20.768 178.45 22.124 177.346 23.228C176.242 24.308 174.922 25.124 173.386 25.676C171.874 26.228 170.242 26.504 168.49 26.504C166.786 26.504 165.178 26.228 163.666 25.676C162.154 25.124 160.834 24.308 159.706 23.228C158.578 22.124 157.69 20.768 157.042 19.16C156.394 17.528 156.07 15.644 156.07 13.508C156.07 11.372 156.406 9.5 157.078 7.892C157.75 6.26 158.65 4.892 159.778 3.788C160.93 2.684 162.25 1.856 163.738 1.304C165.25 0.751998 166.834 0.475998 168.49 0.475998C170.194 0.475998 171.802 0.751998 173.314 1.304C174.826 1.856 176.146 2.684 177.274 3.788C178.402 4.892 179.29 6.26 179.938 7.892C180.586 9.5 180.91 11.372 180.91 13.508Z" fill="white"/>
</svg>
